<?xml version="1.0" encoding="UTF-8" standalone="no"?>
<!DOCTYPE svg PUBLIC "-//W3C//DTD SVG 1.1//EN" "http://www.w3.org/Graphics/SVG/1.1/DTD/svg11.dtd">
<svg width="100%" height="100%" viewBox="0 0 32 32" version="1.1" xmlns="http://www.w3.org/2000/svg" xmlns:xlink="http://www.w3.org/1999/xlink" xml:space="preserve" xmlns:serif="http://www.serif.com/" style="fill-rule:evenodd;clip-rule:evenodd;stroke-linejoin:round;stroke-miterlimit:2;">
    <path d="M32,8L32,24C32,28.415 28.415,32 24,32L8,32C3.585,32 0,28.415 0,24L0,8C0,3.585 3.585,0 8,0L24,0C28.415,0 32,3.585 32,8Z"/>
    <g transform="matrix(1,0,0,1,-5.993222,12.389104)">
        <g transform="matrix(25,0,0,25,12.233701,12.55865)">
            <path d="M0.002,-0.716L0.234,-0.716L0.395,-0.201L0.554,-0.716L0.778,-0.716L0.513,-0L0.273,-0L0.002,-0.716Z" style="fill:rgb(0,245,255);fill-rule:nonzero;"/>
        </g>
    </g>
</svg>
